<svg width="25" height="25" viewBox="0 0 25 25" fill="none" xmlns="http://www.w3.org/2000/svg">
<path fill-rule="evenodd" clip-rule="evenodd" d="M13.0527 24.2773C14.5293 24.2773 16.1934 23.8945 18.0449 23.1289C20.6309 21.832 22.5527 19.9102 23.8105 17.3633C24.3809 16.1914 24.7598 14.7422 24.9473 13.0156V11.8789C24.9473 11.6367 24.9004 11.1152 24.8066 10.3145C24.7129 9.51367 24.5254 8.80078 24.2441 8.17578C23.8301 6.67578 22.6895 4.98828 20.8223 3.11328C18.3066 1.16797 15.7871 0.195312 13.2637 0.195312H12.7012C9.57617 0.195312 6.67773 1.5 4.00586 4.10938C1.9668 6.64062 0.947266 9.13281 0.947266 11.5859V13.0859C1.08789 14.5469 1.37305 15.7578 1.80273 16.7188C2.19336 17.9531 3.16602 19.3789 4.7207 20.9961C7.19727 23.1836 9.92773 24.2773 12.9121 24.2773H13.0527ZM10.416 17.2227H8.42383C8.3457 17.2227 8.29883 17.1758 8.2832 17.082V10.4492C8.2832 10.3711 8.33008 10.3242 8.42383 10.3086H10.416L10.5566 10.5898V17.082C10.5566 17.1758 10.5098 17.2227 10.416 17.2227ZM13.9785 17.2227H11.9863C11.9082 17.2227 11.8613 17.1758 11.8457 17.082V10.3086H14.1191V11.0234H14.2715C14.8027 10.4766 15.3457 10.1914 15.9004 10.168H16.6152C16.748 10.168 17.1035 10.2852 17.6816 10.5195C18.4473 11.1914 18.8301 11.9297 18.8301 12.7344V17.2227H16.6855C16.6074 17.2227 16.5605 17.1758 16.5449 17.082V13.4492C16.5449 12.4492 16.1426 11.9492 15.3379 11.9492C14.6426 11.9492 14.2363 12.4492 14.1191 13.4492V17.082C14.1191 17.1758 14.0723 17.2227 13.9785 17.2227ZM9.49023 9.38281C8.72461 9.38281 8.27539 9.02734 8.14258 8.31641V7.88281C8.43945 7.26562 8.86523 6.95703 9.41992 6.95703C10.3262 7.08203 10.7793 7.51172 10.7793 8.24609V8.31641C10.5449 9.02734 10.1152 9.38281 9.49023 9.38281Z" fill="#1A202C"/>
</svg>
